<svg width="25" height="26" viewBox="0 0 25 26" fill="none" xmlns="http://www.w3.org/2000/svg">
<path d="M11.2008 25.4999C1.72088 25.5456 -3.50405 14.1415 2.67537 7.59864C3.33487 6.87406 4.30059 6.5614 5.2582 6.76172C6.21938 6.96297 6.98121 7.63985 7.29612 8.57232C7.3258 8.66064 7.33825 8.73573 7.34533 8.80569C7.41456 8.92868 7.52134 8.98726 7.58539 9.0127C7.66571 9.04463 7.82712 9.08428 8.0061 8.99083C9.56424 8.17651 9.76719 6.29781 9.96922 3.29998L9.98856 3.01451C10.0553 2.03542 10.6233 1.19698 11.508 0.771734C12.3982 0.343898 13.4147 0.424993 14.2271 0.988703C18.0474 3.63954 19.859 7.617 20.5989 9.75198C20.7755 10.2615 20.5056 10.8177 19.996 10.9943C19.4864 11.1709 18.9302 10.901 18.7536 10.3914C18.0916 8.48122 16.4787 4.92803 13.1138 2.59312C12.786 2.36566 12.4732 2.47438 12.354 2.5318C12.2374 2.58785 11.9633 2.76005 11.9369 3.14721L11.9177 3.43112C11.763 6.19625 11.4933 9.43492 8.91064 10.7214C8.27516 11.0535 7.52886 11.0921 6.86306 10.827C6.20351 10.5644 5.69316 10.0301 5.46282 9.36096C5.43006 9.26565 5.41741 9.18261 5.41038 9.10781C5.26362 8.79095 4.9802 8.69858 4.85795 8.67299C4.72652 8.64536 4.39174 8.61387 4.11936 8.9131C-2.15517 15.9151 6.17578 26.7082 15.0606 22.7056C15.5506 22.4807 16.1304 22.6956 16.3554 23.1856C16.5804 23.6757 16.3656 24.2554 15.8755 24.4804C14.4029 25.1569 12.8301 25.4999 11.2008 25.4999V25.4999ZM21.4744 21.6602C23.73 19.9714 24.9451 17.9486 24.9883 15.8106C25.0136 13.0094 21.6023 11.5645 19.618 13.4962C17.6323 11.564 14.2225 13.0103 14.2477 15.8106C14.2909 17.9486 15.506 19.9714 17.7615 21.6602C18.3081 22.0695 18.9629 22.2741 19.618 22.2741C20.2729 22.274 20.928 22.0694 21.4744 21.6602V21.6602ZM17.421 14.5635C18.094 14.5635 18.6415 15.1111 18.6415 15.7841C18.693 17.0794 20.5432 17.079 20.5945 15.7841C20.6622 14.1676 22.9597 14.1632 23.0356 15.7818C22.9916 17.6903 21.5265 19.1815 20.3039 20.097C19.9001 20.3993 19.336 20.3994 18.932 20.097C17.7095 19.1815 16.2444 17.6903 16.2004 15.7818C16.2053 15.1092 16.7509 14.5635 17.421 14.5635V14.5635ZM22.5474 4.20223C22.6118 2.59454 24.9264 2.59961 24.9885 4.20594C24.9647 5.37183 24.1815 6.3188 23.2536 7.00745C22.8357 7.31762 22.2591 7.31762 21.8412 7.00745C20.9132 6.3188 20.13 5.37183 20.1062 4.20594C20.169 2.59839 22.4836 2.59576 22.5474 4.20223" fill="#A6ADBA"/>
</svg>
