<svg width="26" height="26" viewBox="0 0 26 26" fill="none" xmlns="http://www.w3.org/2000/svg">
<path d="M19.1434 25.5H5.86023C2.6289 25.5 0 22.8711 0 19.6398V11.4222C0 9.606 0.862186 7.86409 2.30629 6.76261L8.94788 1.69699C11.0404 0.101004 13.9632 0.101004 16.0557 1.69699L18.1667 3.30562V2.0591C18.2183 0.76321 20.069 0.764186 20.1201 2.0591V5.27788C20.1201 5.64917 19.9096 5.98833 19.5768 6.15315C19.2441 6.31792 18.8467 6.27973 18.5514 6.05475L14.8714 3.25048C13.4761 2.18627 11.5275 2.18627 10.1325 3.25024L3.49089 8.31587C2.5282 9.0501 1.95341 10.2114 1.95341 11.4222V19.6398C1.95341 21.794 3.70601 23.5466 5.86023 23.5466H19.1434C21.2976 23.5466 23.0502 21.794 23.0502 19.6398V11.4222C23.0502 10.1965 22.4819 9.0313 21.53 8.30522C21.1011 7.97807 21.0186 7.36519 21.3458 6.93632C21.6729 6.5074 22.2859 6.42492 22.7147 6.75207C24.1479 7.84519 25.0036 9.59105 25.0036 11.4222V19.6398C25.0036 22.8711 22.3747 25.5 19.1434 25.5ZM10.5484 11.7773C9.87414 11.7773 9.32753 12.3239 9.32753 12.9982C9.39204 14.6181 11.7054 14.6168 11.7693 12.9982C11.7693 12.3239 11.2227 11.7773 10.5484 11.7773ZM15.6761 12.9981C15.6116 14.618 13.2983 14.6168 13.2343 12.9981C13.2989 11.3783 15.6122 11.3795 15.6761 12.9981ZM11.7693 16.905C11.7048 18.5248 9.39145 18.5236 9.32753 16.905C9.39204 15.2851 11.7054 15.2864 11.7693 16.905ZM15.6761 16.905C15.6116 18.5248 13.2983 18.5236 13.2343 16.905C13.2989 15.2851 15.6122 15.2864 15.6761 16.905Z" fill="#A6ADBA"/>
</svg>
