<svg width="25" height="26" viewBox="0 0 25 26" fill="none" xmlns="http://www.w3.org/2000/svg">
<path d="M7.4707 16.1738C7.4707 16.848 6.92417 17.3945 6.25 17.3945C4.63076 17.3302 4.6312 15.0172 6.25 14.9531C6.92417 14.9531 7.4707 15.4997 7.4707 16.1738ZM10.4492 14.9531C9.77505 14.9531 9.22852 15.4997 9.22852 16.1738C9.29282 17.7931 11.6059 17.7926 11.6699 16.1738C11.6699 15.4997 11.1234 14.9531 10.4492 14.9531ZM14.6484 14.9531C13.9743 14.9531 13.4277 15.4997 13.4277 16.1738C13.492 17.7931 15.8051 17.7926 15.8691 16.1738C15.8691 15.4997 15.3226 14.9531 14.6484 14.9531ZM6.25 19.1523C5.57583 19.1523 5.0293 19.6989 5.0293 20.373C5.0936 21.9923 7.40664 21.9918 7.4707 20.373C7.4707 19.6989 6.92417 19.1523 6.25 19.1523ZM10.4492 19.1523C9.77505 19.1523 9.22852 19.6989 9.22852 20.373C9.29282 21.9923 11.6059 21.9918 11.6699 20.373C11.6699 19.6989 11.1234 19.1523 10.4492 19.1523ZM14.6484 19.1523C13.9743 19.1523 13.4277 19.6989 13.4277 20.373C13.492 21.9923 15.8051 21.9918 15.8691 20.373C15.8691 19.6989 15.3226 19.1523 14.6484 19.1523ZM18.8477 19.1523C18.1735 19.1523 17.627 19.6989 17.627 20.373C17.6913 21.9923 20.0043 21.9918 20.0684 20.373C20.0684 19.6989 19.5218 19.1523 18.8477 19.1523ZM25 11.6328V19.6406C25 22.8715 22.3715 25.5 19.1406 25.5H5.85938C2.62852 25.5 0 22.8715 0 19.6406V11.6328C0 8.40195 2.62852 5.77344 5.85938 5.77344H19.1406C22.3715 5.77344 25 8.40195 25 11.6328ZM23.0469 11.6328C23.0469 9.47891 21.2945 7.72656 19.1406 7.72656H5.85938C3.70547 7.72656 1.95312 9.47891 1.95312 11.6328V19.6406C1.95312 21.7945 3.70547 23.5469 5.85938 23.5469H19.1406C21.2945 23.5469 23.0469 21.7945 23.0469 19.6406V11.6328ZM20.1172 11.1445H4.88281C3.58711 11.1961 3.58809 13.0465 4.88281 13.0977H20.1172C21.4129 13.0461 21.4119 11.1957 20.1172 11.1445ZM9.86328 3.42969C9.86328 3.96904 9.42607 4.40625 8.88672 4.40625C8.34736 4.40625 7.91016 3.96904 7.91016 3.42969C7.91016 2.89121 7.47207 2.45312 6.93359 2.45312C6.39512 2.45312 5.95703 2.89121 5.95703 3.42969C5.95703 3.96904 5.51982 4.40625 4.98047 4.40625C4.44111 4.40625 4.00391 3.96904 4.00391 3.42969C4.16494 -0.45708 9.70298 -0.455664 9.86328 3.42969ZM18.1641 0.5C16.5486 0.5 15.2344 1.81426 15.2344 3.42969C15.2344 3.96904 15.6716 4.40625 16.2109 4.40625C16.7503 4.40625 17.1875 3.96904 17.1875 3.42969C17.1875 2.89121 17.6256 2.45312 18.1641 2.45312C18.7025 2.45312 19.1406 2.89121 19.1406 3.42969C19.1406 3.96904 19.5778 4.40625 20.1172 4.40625C20.6565 4.40625 21.0938 3.96904 21.0938 3.42969C21.0938 1.81426 19.7795 0.5 18.1641 0.5ZM18.8477 14.9531C18.1735 14.9531 17.627 15.4997 17.627 16.1738C17.6913 17.7931 20.0043 17.7926 20.0684 16.1738C20.0684 15.4997 19.5218 14.9531 18.8477 14.9531Z" fill="#A6ADBA"/>
</svg>
