<svg width="23" height="26" viewBox="0 0 23 26" fill="none" xmlns="http://www.w3.org/2000/svg">
<path d="M11.2871 25.5C9.67069 25.5 8.35564 24.1849 8.35564 22.5685V22.5441C8.35564 22.1961 8.14462 21.8884 7.81801 21.7602C6.92353 21.409 6.08972 20.9235 5.33956 20.317C5.06322 20.0937 4.68912 20.0602 4.38655 20.232C4.38557 20.2326 4.38181 20.2347 4.38083 20.2353C2.97309 21.0286 1.17938 20.5322 0.382565 19.1288C-0.00380062 18.4484 -0.101467 17.6586 0.107595 16.9049C0.317096 16.1498 0.809093 15.5217 1.493 15.1363L1.50517 15.1294C1.80212 14.9608 1.97058 14.6259 1.92446 14.2961C1.80012 13.409 1.80281 12.4939 1.93272 11.6076C1.98177 11.2723 1.81023 10.931 1.50585 10.7581L1.48987 10.749C0.809093 10.3654 0.317096 9.73736 0.107595 8.98221C-0.101467 8.22854 -0.00380062 7.43875 0.382565 6.75831C1.17943 5.35493 2.97314 4.85873 4.38083 5.65188L4.4396 5.68525C4.73998 5.85586 5.11365 5.82293 5.39169 5.60141C6.12739 5.01532 6.94248 4.54438 7.8144 4.20164C8.14316 4.07237 8.35559 3.76412 8.35559 3.41631C8.51672 -0.473006 14.0583 -0.471198 14.2185 3.41631V3.43595C14.2185 3.78186 14.4293 4.08947 14.7556 4.21967C15.6179 4.56378 16.424 5.03354 17.1514 5.61588C17.4301 5.83896 17.8043 5.87282 18.1047 5.70221L18.1904 5.65354C19.6011 4.85873 21.3947 5.35503 22.1916 6.75836C22.578 7.43875 22.6756 8.22854 22.4666 8.98221C22.2571 9.73736 21.7651 10.3654 21.0811 10.7508L21.0141 10.7888C20.7157 10.9583 20.5471 11.2931 20.5947 11.622C20.7213 12.4951 20.7244 13.3963 20.6045 14.2703C20.5593 14.6007 20.7277 14.9356 21.0236 15.1036L21.0826 15.1372C21.7657 15.5226 22.2572 16.1503 22.4666 16.9049C23.1685 19.3995 20.4446 21.5113 18.1933 20.2353L18.1593 20.216C17.8558 20.0436 17.4796 20.0786 17.2006 20.305C16.4594 20.9066 15.6356 21.39 14.7521 21.7422C14.428 21.8713 14.2186 22.1784 14.2186 22.5244V22.5685C14.2186 24.1849 12.9035 25.5 11.2871 25.5ZM4.80022 18.1664C5.42765 18.1664 6.05147 18.3795 6.56814 18.7972C7.16298 19.278 7.82378 19.6629 8.53231 19.9411C9.61221 20.3652 10.3099 21.3869 10.3099 22.5441V22.5685C10.3638 23.8652 12.2109 23.8642 12.2643 22.5685V22.5244C12.2643 21.3735 12.9568 20.3539 14.0286 19.9267C14.7285 19.6478 15.3814 19.2645 15.9691 18.7875C16.8775 18.0503 18.1158 17.9438 19.1241 18.5164L19.1552 18.5341C19.6249 18.7986 20.2257 18.6333 20.4922 18.1638C20.6202 17.9384 20.6526 17.6768 20.5833 17.4274C20.5138 17.1765 20.3498 16.9675 20.1218 16.839C20.1208 16.8385 20.1198 16.8379 20.1188 16.8373L20.0585 16.803C19.0589 16.2354 18.5132 15.1371 18.6683 14.0051C18.7634 13.3117 18.761 12.5946 18.6605 11.9019C18.4987 10.7834 19.0566 9.65318 20.049 9.08956L20.1189 9.04988C20.3499 8.91973 20.5138 8.71081 20.5834 8.45988C20.6526 8.21041 20.6202 7.94888 20.4922 7.72345C20.2257 7.25402 19.6248 7.08874 19.1527 7.35462L19.0699 7.40167C18.0694 7.96979 16.8371 7.86767 15.9301 7.1416C15.3534 6.67985 14.7146 6.3075 14.0314 6.03488C12.9579 5.60654 12.2643 4.58645 12.2643 3.43604V3.41635C12.2106 2.12016 10.3636 2.12021 10.31 3.41635C10.31 4.57311 9.61109 5.59531 8.52953 6.02047C7.83883 6.29197 7.19293 6.66529 6.60957 7.12997C5.70365 7.85175 4.47317 7.95176 3.47476 7.38477L3.41887 7.35306C2.94945 7.08859 2.34865 7.25397 2.08208 7.72335C1.95407 7.94883 1.92168 8.21036 1.99086 8.45983C2.06048 8.71071 2.2244 8.91968 2.45247 9.04817L2.47138 9.05887C3.47056 9.62635 4.0314 10.7644 3.86655 11.8906C3.76351 12.5936 3.76136 13.3216 3.86006 14.0253C4.01865 15.1588 3.47325 16.2593 2.4705 16.8287L2.45545 16.8372C2.22445 16.9675 2.06053 17.1764 1.99091 17.4273C1.92168 17.6768 1.95407 17.9383 2.08208 18.1637C2.34855 18.6331 2.9494 18.7985 3.42161 18.5326C3.85361 18.2872 4.32792 18.1664 4.80022 18.1664ZM11.2871 18.1225C8.45839 18.1225 6.15705 15.8212 6.15705 12.9924C6.43886 6.18673 16.1364 6.18873 16.4172 12.9925C16.4172 15.8212 14.1158 18.1225 11.2871 18.1225ZM11.2871 9.8167C9.53599 9.8167 8.11135 11.2413 8.11135 12.9924C8.28582 17.2055 14.2891 17.2043 14.4628 12.9924C14.4628 11.2413 13.0382 9.8167 11.2871 9.8167Z" fill="#A6ADBA"/>
</svg>
