<svg width="25" height="26" viewBox="0 0 25 26" fill="none" xmlns="http://www.w3.org/2000/svg">
<path d="M22.3982 2.95227L14.7058 0.805549C13.243 0.397346 11.6968 0.398128 10.2346 0.808039L2.58767 2.95105C-1.34924 4.15574 -0.576049 9.82844 3.54597 9.92385H21.4437C25.5693 9.82717 26.3373 4.15193 22.3982 2.95227ZM21.4437 7.97073H3.54597C1.69133 7.92786 1.34289 5.37341 3.11472 4.83172L10.7616 2.68865C11.8798 2.37522 13.0622 2.37459 14.1808 2.68675L21.8731 4.83347C23.6469 5.3742 23.2989 7.92766 21.4437 7.97073ZM14.448 21.5938C13.9086 21.5938 13.4714 21.1566 13.4714 20.6172V12.7559C13.523 11.4602 15.3734 11.4612 15.4245 12.7559V20.6172C15.4245 21.1566 14.9873 21.5938 14.448 21.5938ZM10.4929 21.5938C9.95353 21.5938 9.51632 21.1566 9.51632 20.6172V12.7559C9.56788 11.4602 11.4183 11.4612 11.4694 12.7559V20.6172C11.4694 21.1566 11.0322 21.5938 10.4929 21.5938ZM2.68039 21.6426C2.14104 21.6426 1.70383 21.2054 1.70383 20.666V12.7559C1.75539 11.4602 3.60583 11.4612 3.65695 12.7559V20.666C3.65695 21.2054 3.21975 21.6426 2.68039 21.6426ZM6.63547 21.5938C6.09611 21.5938 5.6589 21.1566 5.6589 20.6172V12.7559C5.71047 11.4602 7.5609 11.4612 7.61203 12.7559V20.6172C7.61203 21.1566 7.17482 21.5938 6.63547 21.5938ZM16.694 24.5234C16.694 25.0628 16.2568 25.5 15.7175 25.5H0.97141C-0.324292 25.4484 -0.323315 23.598 0.97141 23.5469H15.7175C16.2568 23.5469 16.694 23.9841 16.694 24.5234ZM24.9948 20.5965C24.9948 21.4463 24.65 22.2467 24.0238 22.8502C23.5812 23.2766 23.04 23.5647 22.4558 23.6918V24.5234C22.4042 25.8191 20.5538 25.8182 20.5026 24.5234V23.6212C19.8515 23.4964 19.0878 23.2887 18.3353 22.9896C17.834 22.7903 17.5893 22.2225 17.7885 21.7213C17.9877 21.2201 18.5556 20.9755 19.0567 21.1745C20.164 21.6147 21.3074 21.8127 21.7657 21.8127C22.4574 21.8127 23.0416 21.2558 23.0416 20.5965C23.0416 19.926 22.3545 19.3804 21.5099 19.3804C20.4998 19.3804 19.617 19.0776 18.9573 18.5047C16.957 16.8022 18.0306 13.3945 20.5514 13.0736V12.1211C20.603 10.8254 22.4534 10.8263 22.5045 12.1211V13.1896C22.9938 13.2863 23.5654 13.4444 24.2257 13.7011C25.4146 14.2188 24.743 15.9432 23.5178 15.5214C22.3178 15.0548 21.541 14.9949 20.9983 14.9949C20.3538 14.9949 19.8678 15.5227 19.8678 16.2226C19.8678 16.9432 20.5277 17.4273 21.5099 17.4273C23.4315 17.4273 24.9948 18.849 24.9948 20.5965ZM12.4948 4.11331C11.8207 4.11331 11.2741 4.65984 11.2741 5.33401C11.3384 6.95325 13.6515 6.95281 13.7155 5.33401C13.7155 4.65984 13.169 4.11331 12.4948 4.11331Z" fill="white"/>
</svg>
