<svg width="25" height="26" viewBox="0 0 25 26" fill="none" xmlns="http://www.w3.org/2000/svg">
<path d="M19.1406 25.5H5.85938C2.62852 25.5 0 22.8715 0 19.6406V6.35938C0 3.12852 2.62852 0.5 5.85938 0.5H19.1406C22.3715 0.5 25 3.12852 25 6.35938V19.6406C25 22.8715 22.3715 25.5 19.1406 25.5ZM5.85938 2.45312C3.70547 2.45312 1.95312 4.20547 1.95312 6.35938V19.6406C1.95312 21.7945 3.70547 23.5469 5.85938 23.5469H19.1406C21.2945 23.5469 23.0469 21.7945 23.0469 19.6406V6.35938C23.0469 4.20547 21.2945 2.45312 19.1406 2.45312H5.85938ZM6.68945 17.6875C6.43301 17.6875 6.18389 17.5864 5.99888 17.4015C5.76802 17.1706 5.66782 16.8397 5.73179 16.5196L6.28481 13.7528C6.55903 12.3808 7.22695 11.1326 8.21636 10.1431L12.9092 5.45029C14.236 4.06753 16.6233 4.06753 17.9501 5.45034C19.3329 6.7771 19.3328 9.1645 17.95 10.4912L13.2573 15.184C12.2678 16.1734 11.0196 16.8413 9.64761 17.1156L6.88081 17.6686C6.81719 17.6813 6.75308 17.6875 6.68945 17.6875ZM15.4297 6.35938C14.9993 6.35938 14.5946 6.527 14.2903 6.8313L9.59751 11.5242C8.88169 12.2399 8.39849 13.1429 8.20015 14.1355L7.93418 15.4662L9.26489 15.2002C10.2575 15.0019 11.1604 14.5187 11.8762 13.8029L16.569 9.11006C17.1942 8.5103 17.1941 7.43105 16.569 6.83135C16.569 6.8313 16.569 6.8313 16.569 6.8313C16.2647 6.527 15.8601 6.35938 15.4297 6.35938ZM20.8984 20.6172C20.8984 20.0778 20.4612 19.6406 19.9219 19.6406H5.07812C3.78242 19.6922 3.7834 21.5426 5.07812 21.5937H19.9219C20.4612 21.5937 20.8984 21.1565 20.8984 20.6172Z" fill="#A6ADBA"/>
</svg>
