<svg width="47" height="60" viewBox="0 0 47 60" fill="none" xmlns="http://www.w3.org/2000/svg">
<path d="M29.5542 50.9272C29.7117 51.452 30.2631 51.7544 30.7828 51.5809C35.7512 49.9224 40.0118 46.6629 42.8587 42.3205C45.8844 37.7053 47.1103 32.1764 46.3115 26.7476C45.5128 21.3188 42.743 16.354 38.5101 12.7636C34.2771 9.17329 28.8648 7.19809 23.2656 7.20026C17.6665 7.20242 12.2557 9.1818 8.02569 12.7754C3.79565 16.369 1.02985 21.336 0.235497 26.7654C-0.558861 32.1948 0.671471 37.7228 3.70086 42.3356C6.55122 46.6758 10.8145 49.932 15.7842 51.5867C16.3041 51.7598 16.8552 51.4569 17.0123 50.932L19.5821 42.3427C19.7416 41.8094 19.4331 41.2523 18.9125 41.0552C16.5299 40.1531 14.4908 38.5313 13.0994 36.4126C11.5245 34.0147 10.885 31.141 11.2979 28.3185C11.7108 25.496 13.1486 22.914 15.3476 21.0459C17.5466 19.1777 20.3593 18.1488 23.27 18.1476C26.1808 18.1465 28.9943 19.1733 31.1948 21.0397C33.3953 22.9061 34.8352 25.4871 35.2504 28.3092C35.6656 31.1314 35.0283 34.0056 33.4554 36.4048C32.0657 38.5245 30.028 40.1479 27.6461 41.0518C27.1257 41.2493 26.8175 41.8067 26.9775 42.3399L29.5542 50.9272Z" fill="url(#paint0_linear_229_5667)"/>
<defs>
<linearGradient id="paint0_linear_229_5667" x1="46.5496" y1="52.7997" x2="-25.3414" y2="-0.982449" gradientUnits="userSpaceOnUse">
<stop stop-color="#03705C"/>
<stop offset="1" stop-color="#5AB8A7"/>
</linearGradient>
</defs>
</svg>
