<svg width="229" height="60" viewBox="0 0 229 60" fill="none" xmlns="http://www.w3.org/2000/svg">
<path d="M29.5542 50.9272C29.7117 51.452 30.2631 51.7544 30.7828 51.5809C35.7512 49.9224 40.0118 46.6629 42.8587 42.3205C45.8844 37.7053 47.1103 32.1764 46.3115 26.7476C45.5128 21.3188 42.743 16.354 38.5101 12.7636C34.2771 9.17329 28.8648 7.19809 23.2656 7.20026C17.6665 7.20242 12.2557 9.1818 8.02569 12.7754C3.79565 16.369 1.02985 21.336 0.235497 26.7654C-0.558861 32.1948 0.671471 37.7228 3.70086 42.3356C6.55122 46.6758 10.8145 49.932 15.7842 51.5867C16.3041 51.7598 16.8552 51.4569 17.0123 50.932L19.5821 42.3427C19.7416 41.8094 19.4331 41.2523 18.9125 41.0552C16.5299 40.1531 14.4908 38.5313 13.0994 36.4126C11.5245 34.0147 10.885 31.141 11.2979 28.3185C11.7108 25.496 13.1486 22.914 15.3476 21.0459C17.5466 19.1777 20.3593 18.1488 23.27 18.1476C26.1808 18.1465 28.9943 19.1733 31.1948 21.0397C33.3953 22.9061 34.8352 25.4871 35.2504 28.3092C35.6656 31.1314 35.0283 34.0056 33.4554 36.4048C32.0657 38.5245 30.028 40.1479 27.6461 41.0518C27.1257 41.2493 26.8175 41.8067 26.9775 42.3399L29.5542 50.9272Z" fill="white"/>
<path d="M75.1796 21.205C78.2096 21.205 80.6396 22.105 82.4696 23.905C84.3296 25.705 85.2596 28.42 85.2596 32.05V46H76.7096V33.445C76.7096 30.115 75.3746 28.45 72.7046 28.45C71.2346 28.45 70.0496 28.93 69.1496 29.89C68.2796 30.85 67.8446 32.29 67.8446 34.21V46H59.2946V21.61H67.4396V24.265C68.3996 23.275 69.5396 22.525 70.8596 22.015C72.1796 21.475 73.6196 21.205 75.1796 21.205ZM116.764 21.61V46H108.619V43.57C107.029 45.46 104.629 46.405 101.419 46.405C99.1991 46.405 97.1741 45.895 95.3441 44.875C93.5441 43.825 92.1041 42.34 91.0241 40.42C89.9741 38.5 89.4491 36.28 89.4491 33.76C89.4491 31.24 89.9741 29.035 91.0241 27.145C92.1041 25.225 93.5441 23.755 95.3441 22.735C97.1741 21.715 99.1991 21.205 101.419 21.205C104.299 21.205 106.564 22.045 108.214 23.725V21.61H116.764ZM103.219 39.61C104.719 39.61 105.949 39.1 106.909 38.08C107.869 37.03 108.349 35.59 108.349 33.76C108.349 31.96 107.869 30.55 106.909 29.53C105.949 28.51 104.719 28 103.219 28C101.719 28 100.489 28.51 99.5291 29.53C98.5691 30.55 98.0891 31.96 98.0891 33.76C98.0891 35.59 98.5691 37.03 99.5291 38.08C100.489 39.1 101.719 39.61 103.219 39.61ZM137.613 21.205C139.833 21.205 141.843 21.73 143.643 22.78C145.473 23.8 146.913 25.27 147.963 27.19C149.043 29.08 149.583 31.285 149.583 33.805C149.583 36.325 149.043 38.545 147.963 40.465C146.913 42.355 145.473 43.825 143.643 44.875C141.843 45.895 139.833 46.405 137.613 46.405C134.763 46.405 132.498 45.55 130.818 43.84V54.73H122.268V21.61H130.413V24.04C132.003 22.15 134.403 21.205 137.613 21.205ZM135.813 39.61C137.313 39.61 138.543 39.1 139.503 38.08C140.463 37.03 140.943 35.605 140.943 33.805C140.943 32.005 140.463 30.595 139.503 29.575C138.543 28.525 137.313 28 135.813 28C134.313 28 133.083 28.525 132.123 29.575C131.163 30.595 130.683 32.005 130.683 33.805C130.683 35.605 131.163 37.03 132.123 38.08C133.083 39.1 134.313 39.61 135.813 39.61ZM153.557 21.61H162.107V46H153.557V21.61ZM157.832 18.91C156.272 18.91 155.012 18.475 154.052 17.605C153.092 16.735 152.612 15.655 152.612 14.365C152.612 13.075 153.092 11.995 154.052 11.125C155.012 10.255 156.272 9.82 157.832 9.82C159.392 9.82 160.652 10.24 161.612 11.08C162.572 11.89 163.052 12.94 163.052 14.23C163.052 15.58 162.572 16.705 161.612 17.605C160.652 18.475 159.392 18.91 157.832 18.91ZM193.899 21.61V41.545C193.899 46.075 192.669 49.465 190.209 51.715C187.749 53.995 184.209 55.135 179.589 55.135C177.189 55.135 174.939 54.865 172.839 54.325C170.739 53.785 168.954 52.99 167.484 51.94L170.589 45.955C171.579 46.765 172.824 47.395 174.324 47.845C175.854 48.325 177.354 48.565 178.824 48.565C181.074 48.565 182.724 48.07 183.774 47.08C184.824 46.09 185.349 44.62 185.349 42.67V41.86C183.699 43.78 181.284 44.74 178.104 44.74C175.944 44.74 173.949 44.26 172.119 43.3C170.289 42.31 168.834 40.93 167.754 39.16C166.674 37.36 166.134 35.29 166.134 32.95C166.134 30.64 166.674 28.6 167.754 26.83C168.834 25.03 170.289 23.65 172.119 22.69C173.949 21.7 175.944 21.205 178.104 21.205C181.584 21.205 184.134 22.33 185.754 24.58V21.61H193.899ZM180.129 37.945C181.659 37.945 182.919 37.48 183.909 36.55C184.929 35.62 185.439 34.42 185.439 32.95C185.439 31.48 184.944 30.295 183.954 29.395C182.964 28.465 181.689 28 180.129 28C178.569 28 177.279 28.465 176.259 29.395C175.269 30.295 174.774 31.48 174.774 32.95C174.774 34.42 175.284 35.62 176.304 36.55C177.324 37.48 178.599 37.945 180.129 37.945ZM211.632 46.405C209.022 46.405 206.667 45.865 204.567 44.785C202.467 43.705 200.817 42.205 199.617 40.285C198.447 38.365 197.862 36.19 197.862 33.76C197.862 31.36 198.447 29.2 199.617 27.28C200.817 25.36 202.452 23.875 204.522 22.825C206.622 21.745 208.992 21.205 211.632 21.205C214.272 21.205 216.642 21.745 218.742 22.825C220.842 23.875 222.477 25.36 223.647 27.28C224.817 29.17 225.402 31.33 225.402 33.76C225.402 36.19 224.817 38.365 223.647 40.285C222.477 42.205 220.842 43.705 218.742 44.785C216.642 45.865 214.272 46.405 211.632 46.405ZM211.632 39.61C213.132 39.61 214.362 39.1 215.322 38.08C216.282 37.03 216.762 35.59 216.762 33.76C216.762 31.96 216.282 30.55 215.322 29.53C214.362 28.51 213.132 28 211.632 28C210.132 28 208.902 28.51 207.942 29.53C206.982 30.55 206.502 31.96 206.502 33.76C206.502 35.59 206.982 37.03 207.942 38.08C208.902 39.1 210.132 39.61 211.632 39.61Z" fill="white"/>
</svg>
