<svg width="214" height="66" viewBox="0 0 214 66" fill="none" xmlns="http://www.w3.org/2000/svg">
<g clip-path="url(#clip0_179_5508)">
<path d="M29.9185 47.3858C27.3963 47.3858 24.9315 47.2293 22.5925 46.9208L22.4443 46.9013V45.7889C22.4443 41.6676 25.7973 38.3147 29.9185 38.3147C34.0403 38.3147 37.3936 41.6676 37.3936 45.7889V46.9013L37.2455 46.9208C34.9066 47.2293 32.4414 47.3858 29.9185 47.3858Z" fill="white"/>
<path d="M26.9345 38.2423C23.9318 39.4334 21.8038 42.3668 21.8038 45.7891V45.8178C18.3062 45.2885 15.3585 44.438 13.2174 43.3685L13.2174 43.3685C10.7237 42.123 9.85226 40.8495 9.85226 39.8485V39.8202L9.85426 39.6936C9.93697 34.4568 14.2242 30.2209 19.4799 30.2209C21.7501 30.2209 23.9129 31.0077 25.6414 32.4502C25.3251 33.0964 25.1603 33.8071 25.1603 34.5373C25.1603 36.0329 25.853 37.3692 26.9345 38.2423Z" fill="white" stroke="#037C66" stroke-width="1.9633"/>
<path d="M19.4796 29.5801C16.275 29.5801 13.668 26.9729 13.668 23.7685C13.668 20.5635 16.275 17.956 19.4796 17.956C22.6846 17.956 25.2921 20.5635 25.2921 23.7685C25.2921 26.973 22.6846 29.5801 19.4796 29.5801Z" fill="white"/>
<path d="M30.2372 38.8313C27.9667 38.8313 26.1196 36.9837 26.1196 34.7128C26.1196 33.8669 26.3739 33.0551 26.855 32.3648C27.6246 31.2562 28.8892 30.5944 30.2372 30.5944C31.5859 30.5944 32.8505 31.2563 33.6205 32.365C34.1014 33.0564 34.3557 33.8683 34.3557 34.7128C34.3557 36.9838 32.5081 38.8313 30.2372 38.8313Z" fill="white"/>
</g>
<path d="M54.7066 25.4481C52.9396 25.4481 51.6046 25.8407 50.7015 26.6261C49.7983 27.4114 49.3468 28.5697 49.3468 30.1011V31.8681H58.3289V35.1075H49.3468V43H45.5183V30.1011C45.5183 27.6077 46.3135 25.6542 47.9037 24.2406C49.5137 22.8074 51.7224 22.0908 54.5299 22.0908C55.7079 22.0908 56.8073 22.2184 57.8282 22.4737C58.8492 22.7289 59.7425 23.1019 60.5081 23.5928L59.3007 26.7144C58.0835 25.8702 56.5521 25.4481 54.7066 25.4481ZM77.7973 27.2739V43H74.2928V40.968C73.6842 41.714 72.9283 42.2736 72.0252 42.6466C71.1417 43.0196 70.1601 43.2061 69.0803 43.2061C67.5489 43.2061 66.1746 42.8724 64.9573 42.2049C63.7597 41.5373 62.8173 40.595 62.1302 39.3777C61.4627 38.1605 61.1289 36.7469 61.1289 35.137C61.1289 33.5271 61.4627 32.1233 62.1302 30.9257C62.8173 29.7084 63.7597 28.7661 64.9573 28.0985C66.1746 27.431 67.5489 27.0972 69.0803 27.0972C70.1012 27.0972 71.0338 27.2739 71.878 27.6273C72.7418 27.9807 73.4879 28.501 74.1161 29.1882V27.2739H77.7973ZM69.4926 40.055C70.8472 40.055 71.9663 39.6035 72.8498 38.7004C73.7333 37.7972 74.175 36.6094 74.175 35.137C74.175 33.6645 73.7333 32.4767 72.8498 31.5736C71.9663 30.6705 70.8472 30.2189 69.4926 30.2189C68.1379 30.2189 67.0188 30.6705 66.1353 31.5736C65.2715 32.4767 64.8395 33.6645 64.8395 35.137C64.8395 36.6094 65.2715 37.7972 66.1353 38.7004C67.0188 39.6035 68.1379 40.055 69.4926 40.055ZM102.463 27.0972C104.446 27.0972 106.016 27.6764 107.175 28.8348C108.333 29.9735 108.912 31.6914 108.912 33.9884V43H105.231V34.4596C105.231 33.0853 104.927 32.0546 104.318 31.3674C103.709 30.6606 102.836 30.3072 101.697 30.3072C100.46 30.3072 99.4687 30.7195 98.7226 31.5441C97.9766 32.3491 97.6035 33.5074 97.6035 35.0192V43H93.9223V34.4596C93.9223 33.0853 93.618 32.0546 93.0094 31.3674C92.4008 30.6606 91.5271 30.3072 90.3884 30.3072C89.1319 30.3072 88.1306 30.7097 87.3845 31.5147C86.6581 32.3196 86.2949 33.4878 86.2949 35.0192V43H82.6137V27.2739H86.1182V29.2765C86.7072 28.5697 87.4434 28.0298 88.3269 27.6568C89.2104 27.2838 90.1921 27.0972 91.2719 27.0972C92.4499 27.0972 93.4904 27.323 94.3935 27.7746C95.3163 28.2065 96.0427 28.8544 96.5728 29.7183C97.2207 28.8937 98.0551 28.2556 99.076 27.804C100.097 27.3328 101.226 27.0972 102.463 27.0972ZM118.475 43.2061C117.199 43.2061 115.953 43.0393 114.735 42.7055C113.518 42.3717 112.546 41.9496 111.82 41.4392L113.233 38.6415C113.94 39.1127 114.784 39.4955 115.766 39.79C116.767 40.0649 117.749 40.2023 118.711 40.2023C120.91 40.2023 122.009 39.6231 122.009 38.4648C122.009 37.915 121.725 37.5322 121.155 37.3162C120.606 37.1003 119.712 36.8941 118.475 36.6978C117.18 36.5015 116.119 36.2757 115.295 36.0205C114.49 35.7652 113.783 35.3235 113.175 34.6952C112.586 34.0473 112.291 33.154 112.291 32.0153C112.291 30.5232 112.909 29.3354 114.146 28.4519C115.403 27.5488 117.091 27.0972 119.212 27.0972C120.291 27.0972 121.371 27.2249 122.451 27.4801C123.531 27.7157 124.414 28.0396 125.102 28.4519L123.688 31.2496C122.353 30.4643 120.851 30.0717 119.182 30.0717C118.102 30.0717 117.278 30.2385 116.708 30.5723C116.159 30.8864 115.884 31.3085 115.884 31.8386C115.884 32.4276 116.178 32.8497 116.767 33.105C117.376 33.3406 118.309 33.5663 119.565 33.7823C120.822 33.9786 121.852 34.2044 122.657 34.4596C123.462 34.7149 124.149 35.1468 124.719 35.7554C125.308 36.364 125.602 37.2279 125.602 38.347C125.602 39.8194 124.964 40.9974 123.688 41.8809C122.412 42.7644 120.674 43.2061 118.475 43.2061ZM137.489 27.0972C139.021 27.0972 140.385 27.431 141.583 28.0985C142.8 28.7661 143.752 29.7084 144.44 30.9257C145.127 32.1429 145.47 33.5467 145.47 35.137C145.47 36.7272 145.127 38.1408 144.44 39.3777C143.752 40.595 142.8 41.5373 141.583 42.2049C140.385 42.8724 139.021 43.2061 137.489 43.2061C135.369 43.2061 133.69 42.4994 132.454 41.0858V48.7132H128.772V27.2739H132.277V29.3354C132.886 28.5894 133.632 28.0298 134.515 27.6568C135.418 27.2838 136.41 27.0972 137.489 27.0972ZM137.077 40.055C138.432 40.055 139.541 39.6035 140.405 38.7004C141.288 37.7972 141.73 36.6094 141.73 35.137C141.73 33.6645 141.288 32.4767 140.405 31.5736C139.541 30.6705 138.432 30.2189 137.077 30.2189C136.194 30.2189 135.399 30.425 134.692 30.8373C133.985 31.23 133.425 31.7994 133.013 32.5454C132.601 33.2915 132.395 34.1553 132.395 35.137C132.395 36.1186 132.601 36.9825 133.013 37.7285C133.425 38.4746 133.985 39.0538 134.692 39.4661C135.399 39.8587 136.194 40.055 137.077 40.055ZM164.334 27.2739V43H160.83V40.968C160.221 41.714 159.465 42.2736 158.562 42.6466C157.679 43.0196 156.697 43.2061 155.617 43.2061C154.086 43.2061 152.711 42.8724 151.494 42.2049C150.297 41.5373 149.354 40.595 148.667 39.3777C147.999 38.1605 147.666 36.7469 147.666 35.137C147.666 33.5271 147.999 32.1233 148.667 30.9257C149.354 29.7084 150.297 28.7661 151.494 28.0985C152.711 27.431 154.086 27.0972 155.617 27.0972C156.638 27.0972 157.571 27.2739 158.415 27.6273C159.279 27.9807 160.025 28.501 160.653 29.1882V27.2739H164.334ZM156.029 40.055C157.384 40.055 158.503 39.6035 159.387 38.7004C160.27 37.7972 160.712 36.6094 160.712 35.137C160.712 33.6645 160.27 32.4767 159.387 31.5736C158.503 30.6705 157.384 30.2189 156.029 30.2189C154.675 30.2189 153.556 30.6705 152.672 31.5736C151.808 32.4767 151.376 33.6645 151.376 35.137C151.376 36.6094 151.808 37.7972 152.672 38.7004C153.556 39.6035 154.675 40.055 156.029 40.055ZM176.366 43.2061C174.736 43.2061 173.273 42.8626 171.978 42.1754C170.682 41.4883 169.671 40.5361 168.944 39.3188C168.218 38.0819 167.855 36.688 167.855 35.137C167.855 33.586 168.218 32.2018 168.944 30.9846C169.671 29.7673 170.672 28.8151 171.948 28.128C173.244 27.4408 174.716 27.0972 176.366 27.0972C177.917 27.0972 179.271 27.4114 180.43 28.0396C181.608 28.6679 182.491 29.571 183.08 30.749L180.253 32.3982C179.801 31.6717 179.232 31.1318 178.545 30.7784C177.877 30.4054 177.141 30.2189 176.336 30.2189C174.962 30.2189 173.823 30.6705 172.92 31.5736C172.017 32.4571 171.565 33.6449 171.565 35.137C171.565 36.6291 172.007 37.8267 172.891 38.7298C173.794 39.6133 174.942 40.055 176.336 40.055C177.141 40.055 177.877 39.8783 178.545 39.525C179.232 39.1519 179.801 38.6022 180.253 37.8758L183.08 39.525C182.472 40.7029 181.578 41.6159 180.4 42.2638C179.242 42.892 177.897 43.2061 176.366 43.2061ZM193.512 40.0845C195.22 40.0845 196.644 39.5151 197.783 38.3764L199.726 40.644C199.039 41.4883 198.156 42.1263 197.076 42.5583C195.996 42.9902 194.779 43.2061 193.424 43.2061C191.696 43.2061 190.175 42.8626 188.859 42.1754C187.544 41.4883 186.523 40.5361 185.797 39.3188C185.09 38.0819 184.736 36.688 184.736 35.137C184.736 33.6056 185.08 32.2313 185.767 31.014C186.474 29.7772 187.436 28.8151 188.653 28.128C189.89 27.4408 191.284 27.0972 192.835 27.0972C194.308 27.0972 195.643 27.4212 196.84 28.0691C198.057 28.6973 199.019 29.6103 199.726 30.8079C200.433 31.9859 200.786 33.37 200.786 34.9603L188.742 37.3162C189.115 38.2194 189.713 38.9065 190.538 39.3777C191.363 39.8489 192.354 40.0845 193.512 40.0845ZM192.835 30.0422C191.48 30.0422 190.381 30.4839 189.537 31.3674C188.712 32.2509 188.3 33.4387 188.3 34.9308V34.9603L197.194 33.2522C196.938 32.2902 196.418 31.5147 195.633 30.9257C194.867 30.3367 193.935 30.0422 192.835 30.0422Z" fill="white"/>
<defs>
<clipPath id="clip0_179_5508">
<rect width="28.8718" height="29.7835" fill="white" transform="translate(8.79663 17.8299)"/>
</clipPath>
</defs>
</svg>
