<svg width="228" height="54" viewBox="0 0 228 54" fill="none" xmlns="http://www.w3.org/2000/svg">
<path d="M16.9953 6.07282C16.8378 5.54801 16.2865 5.24558 15.7667 5.41908C10.7984 7.07761 6.53771 10.3371 3.69085 14.6795C0.665173 19.2947 -0.560701 24.8236 0.238031 30.2524C1.03676 35.6812 3.80656 40.646 8.03949 44.2364C12.2724 47.8267 17.6847 49.8019 23.2839 49.7997C28.8831 49.7976 34.2938 47.8182 38.5239 44.2246C42.7539 40.631 45.5197 35.664 46.3141 30.2346C47.1084 24.8052 45.8781 19.2772 42.8487 14.6644C39.9983 10.3242 35.735 7.06797 30.7654 5.41328C30.2455 5.24018 29.6943 5.54306 29.5373 6.06801L26.9675 14.6573C26.8079 15.1906 27.1165 15.7477 27.6371 15.9448C30.0197 16.8469 32.0588 18.4687 33.4502 20.5874C35.025 22.9853 35.6646 25.859 35.2517 28.6815C34.8387 31.504 33.4009 34.086 31.202 35.9541C29.003 37.8223 26.1902 38.8512 23.2795 38.8524C20.3688 38.8535 17.5552 37.8267 15.3547 35.9603C13.1543 34.0939 11.7144 31.5129 11.2992 28.6908C10.884 25.8686 11.5212 22.9944 13.0941 20.5952C14.4838 18.4755 16.5216 16.8521 18.9035 15.9482C19.4239 15.7507 19.732 15.1933 19.572 14.6601L16.9953 6.07282Z" fill="url(#paint0_linear_145_5172)"/>
<path d="M75.6454 18.205C78.6754 18.205 81.1054 19.105 82.9354 20.905C84.7954 22.705 85.7254 25.42 85.7254 29.05V43H77.1754V30.445C77.1754 27.115 75.8404 25.45 73.1704 25.45C71.7004 25.45 70.5154 25.93 69.6154 26.89C68.7454 27.85 68.3104 29.29 68.3104 31.21V43H59.7604V18.61H67.9054V21.265C68.8654 20.275 70.0054 19.525 71.3254 19.015C72.6454 18.475 74.0854 18.205 75.6454 18.205ZM117.23 18.61V43H109.085V40.57C107.495 42.46 105.095 43.405 101.885 43.405C99.665 43.405 97.64 42.895 95.81 41.875C94.01 40.825 92.57 39.34 91.49 37.42C90.44 35.5 89.915 33.28 89.915 30.76C89.915 28.24 90.44 26.035 91.49 24.145C92.57 22.225 94.01 20.755 95.81 19.735C97.64 18.715 99.665 18.205 101.885 18.205C104.765 18.205 107.03 19.045 108.68 20.725V18.61H117.23ZM103.685 36.61C105.185 36.61 106.415 36.1 107.375 35.08C108.335 34.03 108.815 32.59 108.815 30.76C108.815 28.96 108.335 27.55 107.375 26.53C106.415 25.51 105.185 25 103.685 25C102.185 25 100.955 25.51 99.995 26.53C99.035 27.55 98.555 28.96 98.555 30.76C98.555 32.59 99.035 34.03 99.995 35.08C100.955 36.1 102.185 36.61 103.685 36.61ZM138.079 18.205C140.299 18.205 142.309 18.73 144.109 19.78C145.939 20.8 147.379 22.27 148.429 24.19C149.509 26.08 150.049 28.285 150.049 30.805C150.049 33.325 149.509 35.545 148.429 37.465C147.379 39.355 145.939 40.825 144.109 41.875C142.309 42.895 140.299 43.405 138.079 43.405C135.229 43.405 132.964 42.55 131.284 40.84V51.73H122.734V18.61H130.879V21.04C132.469 19.15 134.869 18.205 138.079 18.205ZM136.279 36.61C137.779 36.61 139.009 36.1 139.969 35.08C140.929 34.03 141.409 32.605 141.409 30.805C141.409 29.005 140.929 27.595 139.969 26.575C139.009 25.525 137.779 25 136.279 25C134.779 25 133.549 25.525 132.589 26.575C131.629 27.595 131.149 29.005 131.149 30.805C131.149 32.605 131.629 34.03 132.589 35.08C133.549 36.1 134.779 36.61 136.279 36.61ZM154.023 18.61H162.573V43H154.023V18.61ZM158.298 15.91C156.738 15.91 155.478 15.475 154.518 14.605C153.558 13.735 153.078 12.655 153.078 11.365C153.078 10.075 153.558 8.995 154.518 8.125C155.478 7.255 156.738 6.82 158.298 6.82C159.858 6.82 161.118 7.24 162.078 8.08C163.038 8.89 163.518 9.94 163.518 11.23C163.518 12.58 163.038 13.705 162.078 14.605C161.118 15.475 159.858 15.91 158.298 15.91ZM194.365 18.61V38.545C194.365 43.075 193.135 46.465 190.675 48.715C188.215 50.995 184.675 52.135 180.055 52.135C177.655 52.135 175.405 51.865 173.305 51.325C171.205 50.785 169.42 49.99 167.95 48.94L171.055 42.955C172.045 43.765 173.29 44.395 174.79 44.845C176.32 45.325 177.82 45.565 179.29 45.565C181.54 45.565 183.19 45.07 184.24 44.08C185.29 43.09 185.815 41.62 185.815 39.67V38.86C184.165 40.78 181.75 41.74 178.57 41.74C176.41 41.74 174.415 41.26 172.585 40.3C170.755 39.31 169.3 37.93 168.22 36.16C167.14 34.36 166.6 32.29 166.6 29.95C166.6 27.64 167.14 25.6 168.22 23.83C169.3 22.03 170.755 20.65 172.585 19.69C174.415 18.7 176.41 18.205 178.57 18.205C182.05 18.205 184.6 19.33 186.22 21.58V18.61H194.365ZM180.595 34.945C182.125 34.945 183.385 34.48 184.375 33.55C185.395 32.62 185.905 31.42 185.905 29.95C185.905 28.48 185.41 27.295 184.42 26.395C183.43 25.465 182.155 25 180.595 25C179.035 25 177.745 25.465 176.725 26.395C175.735 27.295 175.24 28.48 175.24 29.95C175.24 31.42 175.75 32.62 176.77 33.55C177.79 34.48 179.065 34.945 180.595 34.945ZM212.098 43.405C209.488 43.405 207.133 42.865 205.033 41.785C202.933 40.705 201.283 39.205 200.083 37.285C198.913 35.365 198.328 33.19 198.328 30.76C198.328 28.36 198.913 26.2 200.083 24.28C201.283 22.36 202.918 20.875 204.988 19.825C207.088 18.745 209.458 18.205 212.098 18.205C214.738 18.205 217.108 18.745 219.208 19.825C221.308 20.875 222.943 22.36 224.113 24.28C225.283 26.17 225.868 28.33 225.868 30.76C225.868 33.19 225.283 35.365 224.113 37.285C222.943 39.205 221.308 40.705 219.208 41.785C217.108 42.865 214.738 43.405 212.098 43.405ZM212.098 36.61C213.598 36.61 214.828 36.1 215.788 35.08C216.748 34.03 217.228 32.59 217.228 30.76C217.228 28.96 216.748 27.55 215.788 26.53C214.828 25.51 213.598 25 212.098 25C210.598 25 209.368 25.51 208.408 26.53C207.448 27.55 206.968 28.96 206.968 30.76C206.968 32.59 207.448 34.03 208.408 35.08C209.368 36.1 210.598 36.61 212.098 36.61Z" fill="#2B313B"/>
<defs>
<linearGradient id="paint0_linear_145_5172" x1="0" y1="4.20026" x2="45.5898" y2="50.7398" gradientUnits="userSpaceOnUse">
<stop stop-color="#116959"/>
<stop offset="1" stop-color="#59D6BF"/>
</linearGradient>
</defs>
</svg>
