<svg width="174" height="100" viewBox="0 0 174 100" fill="none" xmlns="http://www.w3.org/2000/svg">
<path d="M18.63 41.205C21.66 41.205 24.09 42.105 25.92 43.905C27.78 45.705 28.71 48.42 28.71 52.05V66H20.16V53.445C20.16 50.115 18.825 48.45 16.155 48.45C14.685 48.45 13.5 48.93 12.6 49.89C11.73 50.85 11.295 52.29 11.295 54.21V66H2.745V41.61H10.89V44.265C11.85 43.275 12.99 42.525 14.31 42.015C15.63 41.475 17.07 41.205 18.63 41.205ZM60.2146 41.61V66H52.0696V63.57C50.4796 65.46 48.0796 66.405 44.8696 66.405C42.6496 66.405 40.6246 65.895 38.7946 64.875C36.9946 63.825 35.5546 62.34 34.4746 60.42C33.4246 58.5 32.8996 56.28 32.8996 53.76C32.8996 51.24 33.4246 49.035 34.4746 47.145C35.5546 45.225 36.9946 43.755 38.7946 42.735C40.6246 41.715 42.6496 41.205 44.8696 41.205C47.7496 41.205 50.0146 42.045 51.6646 43.725V41.61H60.2146ZM46.6696 59.61C48.1696 59.61 49.3996 59.1 50.3596 58.08C51.3196 57.03 51.7996 55.59 51.7996 53.76C51.7996 51.96 51.3196 50.55 50.3596 49.53C49.3996 48.51 48.1696 48 46.6696 48C45.1696 48 43.9396 48.51 42.9796 49.53C42.0196 50.55 41.5396 51.96 41.5396 53.76C41.5396 55.59 42.0196 57.03 42.9796 58.08C43.9396 59.1 45.1696 59.61 46.6696 59.61ZM81.0636 41.205C83.2836 41.205 85.2936 41.73 87.0936 42.78C88.9236 43.8 90.3636 45.27 91.4136 47.19C92.4936 49.08 93.0336 51.285 93.0336 53.805C93.0336 56.325 92.4936 58.545 91.4136 60.465C90.3636 62.355 88.9236 63.825 87.0936 64.875C85.2936 65.895 83.2836 66.405 81.0636 66.405C78.2136 66.405 75.9486 65.55 74.2686 63.84V74.73H65.7186V41.61H73.8636V44.04C75.4536 42.15 77.8536 41.205 81.0636 41.205ZM79.2636 59.61C80.7636 59.61 81.9936 59.1 82.9536 58.08C83.9136 57.03 84.3936 55.605 84.3936 53.805C84.3936 52.005 83.9136 50.595 82.9536 49.575C81.9936 48.525 80.7636 48 79.2636 48C77.7636 48 76.5336 48.525 75.5736 49.575C74.6136 50.595 74.1336 52.005 74.1336 53.805C74.1336 55.605 74.6136 57.03 75.5736 58.08C76.5336 59.1 77.7636 59.61 79.2636 59.61ZM97.0077 41.61H105.558V66H97.0077V41.61ZM101.283 38.91C99.7227 38.91 98.4627 38.475 97.5027 37.605C96.5427 36.735 96.0627 35.655 96.0627 34.365C96.0627 33.075 96.5427 31.995 97.5027 31.125C98.4627 30.255 99.7227 29.82 101.283 29.82C102.843 29.82 104.103 30.24 105.063 31.08C106.023 31.89 106.503 32.94 106.503 34.23C106.503 35.58 106.023 36.705 105.063 37.605C104.103 38.475 102.843 38.91 101.283 38.91ZM137.349 41.61V61.545C137.349 66.075 136.119 69.465 133.659 71.715C131.199 73.995 127.659 75.135 123.039 75.135C120.639 75.135 118.389 74.865 116.289 74.325C114.189 73.785 112.404 72.99 110.934 71.94L114.039 65.955C115.029 66.765 116.274 67.395 117.774 67.845C119.304 68.325 120.804 68.565 122.274 68.565C124.524 68.565 126.174 68.07 127.224 67.08C128.274 66.09 128.799 64.62 128.799 62.67V61.86C127.149 63.78 124.734 64.74 121.554 64.74C119.394 64.74 117.399 64.26 115.569 63.3C113.739 62.31 112.284 60.93 111.204 59.16C110.124 57.36 109.584 55.29 109.584 52.95C109.584 50.64 110.124 48.6 111.204 46.83C112.284 45.03 113.739 43.65 115.569 42.69C117.399 41.7 119.394 41.205 121.554 41.205C125.034 41.205 127.584 42.33 129.204 44.58V41.61H137.349ZM123.579 57.945C125.109 57.945 126.369 57.48 127.359 56.55C128.379 55.62 128.889 54.42 128.889 52.95C128.889 51.48 128.394 50.295 127.404 49.395C126.414 48.465 125.139 48 123.579 48C122.019 48 120.729 48.465 119.709 49.395C118.719 50.295 118.224 51.48 118.224 52.95C118.224 54.42 118.734 55.62 119.754 56.55C120.774 57.48 122.049 57.945 123.579 57.945ZM155.083 66.405C152.473 66.405 150.118 65.865 148.018 64.785C145.918 63.705 144.268 62.205 143.068 60.285C141.898 58.365 141.313 56.19 141.313 53.76C141.313 51.36 141.898 49.2 143.068 47.28C144.268 45.36 145.903 43.875 147.973 42.825C150.073 41.745 152.443 41.205 155.083 41.205C157.723 41.205 160.093 41.745 162.193 42.825C164.293 43.875 165.928 45.36 167.098 47.28C168.268 49.17 168.853 51.33 168.853 53.76C168.853 56.19 168.268 58.365 167.098 60.285C165.928 62.205 164.293 63.705 162.193 64.785C160.093 65.865 157.723 66.405 155.083 66.405ZM155.083 59.61C156.583 59.61 157.813 59.1 158.773 58.08C159.733 57.03 160.213 55.59 160.213 53.76C160.213 51.96 159.733 50.55 158.773 49.53C157.813 48.51 156.583 48 155.083 48C153.583 48 152.353 48.51 151.393 49.53C150.433 50.55 149.953 51.96 149.953 53.76C149.953 55.59 150.433 57.03 151.393 58.08C152.353 59.1 153.583 59.61 155.083 59.61Z" fill="white"/>
</svg>
