<svg width="26" height="20" viewBox="0 0 26 20" fill="none" xmlns="http://www.w3.org/2000/svg">
<path d="M20.2581 11.5876V2.91829C20.2581 1.58426 19.1727 0.498932 17.8387 0.498932H2.91935C1.58533 0.498932 0.5 1.58426 0.5 2.91829V11.5876C0.5 12.9217 1.58533 14.007 2.91935 14.007H5.09098L5.1373 16.1914C5.15116 16.8477 5.90479 17.2136 6.42903 16.8183L10.158 14.007H17.8387C19.1727 14.007 20.2581 12.9217 20.2581 11.5876ZM9.8881 12.3941C9.7129 12.3941 9.54254 12.4511 9.40262 12.5566L6.71643 14.5817L6.68679 13.1835C6.67747 12.7449 6.31925 12.3941 5.88054 12.3941H2.91935C2.4747 12.3941 2.1129 12.0323 2.1129 11.5877V2.91834C2.1129 2.47368 2.4747 2.11189 2.91935 2.11189H17.8387C18.2834 2.11189 18.6452 2.47368 18.6452 2.91834V11.5877C18.6452 12.0323 18.2834 12.3941 17.8387 12.3941H9.8881V12.3941ZM25.5 7.95861V14.6118C25.5 15.9459 24.4147 17.0312 23.0806 17.0312H20.9056L20.8627 18.7151C20.8515 19.1533 20.4923 19.5009 20.0565 19.5009C19.7347 19.5009 19.9139 19.5567 15.8803 17.0312H12.1935C11.7481 17.0312 11.3871 16.6702 11.3871 16.2247C11.3871 15.7793 11.7481 15.4183 12.1935 15.4183C16.4711 15.4183 16.2712 15.373 16.5399 15.5412L19.2863 17.2608L19.3132 16.2041C19.3244 15.7669 19.682 15.4182 20.1194 15.4182H23.0806C23.5253 15.4182 23.8871 15.0564 23.8871 14.6118V7.95856C23.8871 7.5139 23.5253 7.15211 23.0806 7.15211C22.6352 7.15211 22.2742 6.79107 22.2742 6.34566C22.2742 5.90024 22.6352 5.5392 23.0806 5.5392C24.4147 5.53925 25.5 6.62454 25.5 7.95861ZM15.4194 5.79127C15.4194 6.23668 15.0583 6.59772 14.6129 6.59772H6.14516C5.69975 6.59772 5.33871 6.23668 5.33871 5.79127C5.33871 5.34586 5.69975 4.98482 6.14516 4.98482H14.6129C15.0583 4.98482 15.4194 5.34586 15.4194 5.79127ZM13.9577 9.3195C13.9577 9.76491 13.5966 10.1259 13.1512 10.1259H7.60685C7.16144 10.1259 6.8004 9.76491 6.8004 9.3195C6.8004 8.87408 7.16144 8.51304 7.60685 8.51304H13.1512C13.5966 8.51304 13.9577 8.87408 13.9577 9.3195Z" fill="#A6ADBA"/>
</svg>
