<svg width="24" height="18" viewBox="0 0 24 18" fill="none" xmlns="http://www.w3.org/2000/svg">
<path d="M20.3333 17.0729H3.66659C2.9077 17.0702 2.18067 16.7675 1.64405 16.2309C1.10743 15.6943 0.804747 14.9672 0.802002 14.2083V3.79168C0.804747 3.03279 1.10743 2.30576 1.64405 1.76914C2.18067 1.23252 2.9077 0.929838 3.66659 0.927094H20.3333C21.0921 0.929838 21.8192 1.23252 22.3558 1.76914C22.8924 2.30576 23.1951 3.03279 23.1978 3.79168V14.2083C23.1951 14.9672 22.8924 15.6943 22.3558 16.2309C21.8192 16.7675 21.0921 17.0702 20.3333 17.0729ZM3.66659 2.48959C3.32125 2.48959 2.99006 2.62678 2.74587 2.87097C2.50169 3.11515 2.3645 3.44634 2.3645 3.79168V14.2083C2.3645 14.5537 2.50169 14.8849 2.74587 15.1291C2.99006 15.3732 3.32125 15.5104 3.66659 15.5104H20.3333C20.6786 15.5104 21.0098 15.3732 21.254 15.1291C21.4982 14.8849 21.6353 14.5537 21.6353 14.2083V3.79168C21.6353 3.44634 21.4982 3.11515 21.254 2.87097C21.0098 2.62678 20.6786 2.48959 20.3333 2.48959H3.66659Z" fill="#A6ADBA"/>
<path d="M11.9999 10.4062C11.3954 10.4062 10.8019 10.2444 10.2811 9.93747L1.18739 4.53122C1.01748 4.42533 0.894008 4.259 0.841823 4.06572C0.789638 3.87244 0.812618 3.66657 0.906136 3.48956C1.01014 3.31747 1.17727 3.19283 1.37187 3.14224C1.56648 3.09164 1.77315 3.11909 1.9478 3.21872L11.052 8.61456C11.3281 8.78296 11.6452 8.87205 11.9686 8.87205C12.292 8.87205 12.6092 8.78296 12.8853 8.61456L21.9895 3.21872C22.1641 3.11909 22.3708 3.09164 22.5654 3.14224C22.76 3.19283 22.9271 3.31747 23.0311 3.48956C23.1247 3.66657 23.1476 3.87244 23.0954 4.06572C23.0433 4.259 22.9198 4.42533 22.7499 4.53122L13.7186 9.93747C13.1978 10.2444 12.6044 10.4062 11.9999 10.4062Z" fill="#A6ADBA"/>
</svg>
