<svg width="25" height="25" viewBox="0 0 25 25" fill="none" xmlns="http://www.w3.org/2000/svg">
<path d="M12.5001 24.9878C1.40449 24.9767 -4.17656 11.5017 3.66132 3.64898C8.31409 -1.19969 16.6861 -1.20047 21.3389 3.64917C29.1767 11.5027 23.595 24.9773 12.5001 24.9878ZM12.5001 1.94098C6.68451 1.94098 1.95322 6.67227 1.95322 12.4878C2.53256 26.4796 22.4697 26.4756 23.0469 12.4877C23.0469 6.67231 18.3156 1.94098 12.5001 1.94098ZM14.4532 16.3941C11.2223 16.3941 8.59383 13.7656 8.59383 10.5347C8.9157 2.76148 19.9919 2.76373 20.3126 10.5348C20.3126 13.7656 17.684 16.3941 14.4532 16.3941ZM14.4532 6.62847C12.2993 6.62847 10.547 8.38081 10.547 10.5347C10.7615 15.7169 18.1457 15.7154 18.3594 10.5347C18.3594 8.38081 16.6071 6.62847 14.4532 6.62847ZM6.93377 18.8843C6.67933 18.8843 6.42518 18.7855 6.23378 18.5887C5.85765 18.2022 5.86615 17.5839 6.25267 17.2078L8.05931 15.45C8.44593 15.074 9.06414 15.0825 9.44026 15.4689C9.81639 15.8555 9.80789 16.4738 9.42137 16.8499L7.61473 18.6077C7.42489 18.7924 7.17914 18.8843 6.93377 18.8843ZM16.4551 10.5347C16.4551 9.43085 15.557 8.53276 14.4532 8.53276C13.1577 8.58427 13.1582 10.4347 14.4532 10.4859C14.4801 10.4859 14.502 10.5078 14.502 10.5347C14.502 11.0741 14.9392 11.5113 15.4786 11.5113C16.0179 11.5113 16.4551 11.0741 16.4551 10.5347Z" fill="#A6ADBA"/>
</svg>
