<svg width="122" height="124" viewBox="0 0 122 124" fill="none" xmlns="http://www.w3.org/2000/svg">
<path d="M115.826 46.0596C117.21 45.6628 118.022 44.2241 117.583 42.8532C113.387 29.7476 104.962 18.4495 93.646 10.8304C81.6197 2.73285 67.1347 -0.666145 52.8472 1.25677C38.5598 3.17969 25.4277 10.2956 15.8591 21.2996C6.2905 32.3036 0.926791 46.4581 0.751611 61.1673C0.576424 75.8766 5.6015 90.1546 14.9053 101.383C24.2091 112.612 37.1681 120.038 51.4056 122.3C65.6432 124.562 80.2051 121.509 92.4208 113.699C103.915 106.352 112.607 95.257 117.114 82.255C117.586 80.8949 116.808 79.4372 115.434 79.0077L92.9525 71.9793C91.5567 71.543 90.0832 72.3356 89.5486 73.6967C87.1017 79.9268 82.7754 85.2311 77.1646 88.8179C70.8143 92.8776 63.2444 94.4649 55.843 93.289C48.4417 92.113 41.705 88.2525 36.8685 82.4154C32.0319 76.5783 29.4196 69.1559 29.5107 61.5094C29.6018 53.8628 32.3901 46.5047 37.3643 40.7843C42.3385 35.0639 49.1652 31.3647 56.5924 30.3651C64.0197 29.3654 71.5497 31.1324 77.8015 35.3419C83.3252 39.0611 87.524 44.4668 89.8218 50.7533C90.3239 52.1268 91.7781 52.9543 93.1839 52.5512L115.826 46.0596Z" fill="#191D24"/>
</svg>
